<mxfile host="app.diagrams.net" modified="2022-09-10T11:42:14.185Z" agent="5.0 (Windows NT 10.0; Win64; x64) AppleWebKit/537.36 (KHTML, like Gecko) Chrome/105.0.0.0 Safari/537.36" etag="rVRqFalDxAZXKtzm2469" version="20.3.0" type="github">
  <diagram id="VaSPh2-6p4dMCdst_y3Z" name="PÃ¡gina-1">
    <mxGraphModel dx="1422" dy="794" grid="1" gridSize="10" guides="1" tooltips="1" connect="1" arrows="1" fold="1" page="1" pageScale="1" pageWidth="827" pageHeight="1169" math="0" shadow="0">
      <root>
        <mxCell id="0" />
        <mxCell id="1" parent="0" />
        <mxCell id="OMUJPF49YQ3nSCZFRr0q-4" value="1" style="rhombus;whiteSpace=wrap;html=1;" vertex="1" parent="1">
          <mxGeometry x="230" y="70" width="40" height="40" as="geometry" />
        </mxCell>
        <mxCell id="OMUJPF49YQ3nSCZFRr0q-6" value="25" style="rhombus;whiteSpace=wrap;html=1;" vertex="1" parent="1">
          <mxGeometry x="170" y="90" width="40" height="40" as="geometry" />
        </mxCell>
        <mxCell id="OMUJPF49YQ3nSCZFRr0q-7" value="6" style="shape=hexagon;perimeter=hexagonPerimeter2;whiteSpace=wrap;html=1;fixedSize=1;" vertex="1" parent="1">
          <mxGeometry x="420" y="100" width="60" height="40" as="geometry" />
        </mxCell>
        <mxCell id="OMUJPF49YQ3nSCZFRr0q-9" value="4" style="shape=hexagon;perimeter=hexagonPerimeter2;whiteSpace=wrap;html=1;fixedSize=1;" vertex="1" parent="1">
          <mxGeometry x="450" y="160" width="60" height="40" as="geometry" />
        </mxCell>
        <mxCell id="OMUJPF49YQ3nSCZFRr0q-11" value="" style="endArrow=none;dashed=1;html=1;dashPattern=1 3;strokeWidth=2;rounded=0;" edge="1" parent="1">
          <mxGeometry width="50" height="50" relative="1" as="geometry">
            <mxPoint x="360" y="200" as="sourcePoint" />
            <mxPoint x="40" y="200" as="targetPoint" />
          </mxGeometry>
        </mxCell>
        <mxCell id="OMUJPF49YQ3nSCZFRr0q-12" value="" style="endArrow=none;dashed=1;html=1;rounded=0;" edge="1" parent="1">
          <mxGeometry width="50" height="50" relative="1" as="geometry">
            <mxPoint x="360" y="390" as="sourcePoint" />
            <mxPoint x="360" y="30" as="targetPoint" />
          </mxGeometry>
        </mxCell>
        <mxCell id="OMUJPF49YQ3nSCZFRr0q-13" value="Verpertino" style="text;html=1;strokeColor=none;fillColor=none;align=center;verticalAlign=middle;whiteSpace=wrap;rounded=0;fontStyle=1;fontSize=17;" vertex="1" parent="1">
          <mxGeometry x="40" y="140" width="100" height="50" as="geometry" />
        </mxCell>
        <mxCell id="OMUJPF49YQ3nSCZFRr0q-14" value="Noturno" style="text;html=1;strokeColor=none;fillColor=none;align=center;verticalAlign=middle;whiteSpace=wrap;rounded=0;fontStyle=1;fontSize=17;" vertex="1" parent="1">
          <mxGeometry x="40" y="210" width="100" height="50" as="geometry" />
        </mxCell>
        <mxCell id="OMUJPF49YQ3nSCZFRr0q-5" value="12" style="rhombus;whiteSpace=wrap;html=1;" vertex="1" parent="1">
          <mxGeometry x="170" y="150" width="40" height="40" as="geometry" />
        </mxCell>
        <mxCell id="OMUJPF49YQ3nSCZFRr0q-23" value="" style="endArrow=classic;html=1;rounded=0;fontSize=17;entryX=0;entryY=0.5;entryDx=0;entryDy=0;exitX=1;exitY=0.5;exitDx=0;exitDy=0;" edge="1" parent="1" source="OMUJPF49YQ3nSCZFRr0q-4" target="OMUJPF49YQ3nSCZFRr0q-7">
          <mxGeometry width="50" height="50" relative="1" as="geometry">
            <mxPoint x="360" y="190" as="sourcePoint" />
            <mxPoint x="410" y="140" as="targetPoint" />
          </mxGeometry>
        </mxCell>
        <mxCell id="OMUJPF49YQ3nSCZFRr0q-24" value="Limite vagas dia" style="text;html=1;strokeColor=none;fillColor=none;align=center;verticalAlign=middle;whiteSpace=wrap;rounded=0;fontStyle=1;fontSize=17;" vertex="1" parent="1">
          <mxGeometry x="380" y="20" width="100" height="50" as="geometry" />
        </mxCell>
        <mxCell id="OMUJPF49YQ3nSCZFRr0q-25" value="Dia" style="text;html=1;strokeColor=none;fillColor=none;align=center;verticalAlign=middle;whiteSpace=wrap;rounded=0;fontStyle=1;fontSize=17;" vertex="1" parent="1">
          <mxGeometry x="200" y="10" width="100" height="50" as="geometry" />
        </mxCell>
        <mxCell id="OMUJPF49YQ3nSCZFRr0q-27" value="4" style="shape=hexagon;perimeter=hexagonPerimeter2;whiteSpace=wrap;html=1;fixedSize=1;size=20;" vertex="1" parent="1">
          <mxGeometry x="450" y="220" width="60" height="40" as="geometry" />
        </mxCell>
        <mxCell id="OMUJPF49YQ3nSCZFRr0q-28" value="2" style="shape=hexagon;perimeter=hexagonPerimeter2;whiteSpace=wrap;html=1;fixedSize=1;size=20;" vertex="1" parent="1">
          <mxGeometry x="450" y="290" width="60" height="40" as="geometry" />
        </mxCell>
        <mxCell id="OMUJPF49YQ3nSCZFRr0q-29" value="" style="endArrow=classic;html=1;rounded=0;fontSize=17;entryX=0;entryY=0.5;entryDx=0;entryDy=0;exitX=1;exitY=0.5;exitDx=0;exitDy=0;" edge="1" parent="1" source="OMUJPF49YQ3nSCZFRr0q-6" target="OMUJPF49YQ3nSCZFRr0q-9">
          <mxGeometry width="50" height="50" relative="1" as="geometry">
            <mxPoint x="280" y="100" as="sourcePoint" />
            <mxPoint x="430" y="130" as="targetPoint" />
          </mxGeometry>
        </mxCell>
        <mxCell id="OMUJPF49YQ3nSCZFRr0q-30" value="" style="endArrow=classic;html=1;rounded=0;fontSize=17;entryX=0;entryY=0.5;entryDx=0;entryDy=0;exitX=1;exitY=0.5;exitDx=0;exitDy=0;" edge="1" parent="1" source="OMUJPF49YQ3nSCZFRr0q-5" target="OMUJPF49YQ3nSCZFRr0q-27">
          <mxGeometry width="50" height="50" relative="1" as="geometry">
            <mxPoint x="220" y="120" as="sourcePoint" />
            <mxPoint x="460" y="190" as="targetPoint" />
          </mxGeometry>
        </mxCell>
        <mxCell id="OMUJPF49YQ3nSCZFRr0q-31" value="15" style="rhombus;whiteSpace=wrap;html=1;" vertex="1" parent="1">
          <mxGeometry x="230" y="230" width="40" height="40" as="geometry" />
        </mxCell>
        <mxCell id="OMUJPF49YQ3nSCZFRr0q-32" value="20" style="rhombus;whiteSpace=wrap;html=1;" vertex="1" parent="1">
          <mxGeometry x="170" y="290" width="40" height="40" as="geometry" />
        </mxCell>
        <mxCell id="OMUJPF49YQ3nSCZFRr0q-33" value="12" style="rhombus;whiteSpace=wrap;html=1;" vertex="1" parent="1">
          <mxGeometry x="170" y="340" width="40" height="40" as="geometry" />
        </mxCell>
        <mxCell id="OMUJPF49YQ3nSCZFRr0q-34" value="3" style="shape=hexagon;perimeter=hexagonPerimeter2;whiteSpace=wrap;html=1;fixedSize=1;size=20;" vertex="1" parent="1">
          <mxGeometry x="420" y="340" width="60" height="40" as="geometry" />
        </mxCell>
        <mxCell id="OMUJPF49YQ3nSCZFRr0q-35" value="" style="endArrow=classic;html=1;rounded=0;fontSize=17;exitX=1;exitY=0.5;exitDx=0;exitDy=0;" edge="1" parent="1" source="OMUJPF49YQ3nSCZFRr0q-31" target="OMUJPF49YQ3nSCZFRr0q-28">
          <mxGeometry width="50" height="50" relative="1" as="geometry">
            <mxPoint x="220" y="180" as="sourcePoint" />
            <mxPoint x="430" y="200" as="targetPoint" />
          </mxGeometry>
        </mxCell>
        <mxCell id="OMUJPF49YQ3nSCZFRr0q-37" value="" style="endArrow=classic;html=1;rounded=0;fontSize=17;exitX=1;exitY=0.5;exitDx=0;exitDy=0;" edge="1" parent="1" source="OMUJPF49YQ3nSCZFRr0q-32">
          <mxGeometry width="50" height="50" relative="1" as="geometry">
            <mxPoint x="280" y="260" as="sourcePoint" />
            <mxPoint x="420" y="120" as="targetPoint" />
          </mxGeometry>
        </mxCell>
        <mxCell id="OMUJPF49YQ3nSCZFRr0q-38" value="" style="endArrow=classic;html=1;rounded=0;fontSize=17;exitX=1;exitY=0.5;exitDx=0;exitDy=0;entryX=0;entryY=0.5;entryDx=0;entryDy=0;" edge="1" parent="1" source="OMUJPF49YQ3nSCZFRr0q-33" target="OMUJPF49YQ3nSCZFRr0q-34">
          <mxGeometry width="50" height="50" relative="1" as="geometry">
            <mxPoint x="280" y="260" as="sourcePoint" />
            <mxPoint x="466.66666666666674" y="313.33333333333326" as="targetPoint" />
          </mxGeometry>
        </mxCell>
        <mxCell id="OMUJPF49YQ3nSCZFRr0q-39" value="25" style="rhombus;whiteSpace=wrap;html=1;" vertex="1" parent="1">
          <mxGeometry x="170" y="230" width="40" height="40" as="geometry" />
        </mxCell>
        <mxCell id="OMUJPF49YQ3nSCZFRr0q-40" value="" style="endArrow=classic;html=1;rounded=0;fontSize=17;exitX=1;exitY=0.5;exitDx=0;exitDy=0;" edge="1" parent="1" source="OMUJPF49YQ3nSCZFRr0q-39">
          <mxGeometry width="50" height="50" relative="1" as="geometry">
            <mxPoint x="220" y="180" as="sourcePoint" />
            <mxPoint x="420" y="360" as="targetPoint" />
          </mxGeometry>
        </mxCell>
      </root>
    </mxGraphModel>
  </diagram>
</mxfile>
